<?xml version="1.0" encoding="UTF-8" standalone="no"?>
<svg
   xmlns:dc="http://purl.org/dc/elements/1.1/"
   xmlns:cc="http://creativecommons.org/ns#"
   xmlns:rdf="http://www.w3.org/1999/02/22-rdf-syntax-ns#"
   xmlns:svg="http://www.w3.org/2000/svg"
   xmlns="http://www.w3.org/2000/svg"
   xmlns:sodipodi="http://sodipodi.sourceforge.net/DTD/sodipodi-0.dtd"
   xmlns:inkscape="http://www.inkscape.org/namespaces/inkscape"
   viewBox="0 0 16 16"
   width="16px"
   height="16px"
   id="svg2"
   version="1.1"
   inkscape:version="0.91 r13725"
   sodipodi:docname="icon-scholar.svg">
  <metadata
     id="metadata10">
    <rdf:RDF>
      <cc:Work
         rdf:about="">
        <dc:format>image/svg+xml</dc:format>
        <dc:type
           rdf:resource="http://purl.org/dc/dcmitype/StillImage" />
        <dc:title />
      </cc:Work>
    </rdf:RDF>
  </metadata>
  <defs
     id="defs8" />
  <sodipodi:namedview
     pagecolor="#ffffff"
     bordercolor="#666666"
     borderopacity="1"
     objecttolerance="10"
     gridtolerance="10"
     guidetolerance="10"
     inkscape:pageopacity="0"
     inkscape:pageshadow="2"
     inkscape:window-width="1535"
     inkscape:window-height="876"
     id="namedview6"
     showgrid="false"
     inkscape:zoom="14.75"
     inkscape:cx="23.543856"
     inkscape:cy="-1.7672937"
     inkscape:window-x="65"
     inkscape:window-y="24"
     inkscape:window-maximized="1"
     inkscape:current-layer="svg2" />
  <path
     style="fill:#000000"
     d=""
     id="path4171"
     inkscape:connector-curvature="0" />
  <path
     style="fill:#7a7a7a"
     d="m 6.3233591,15.999416 c -1.083625,-0.142487 -2.172071,-0.616455 -2.711447,-1.180709 -0.88641,-0.927295 -0.768232,-2.417028 0.265494,-3.346784 0.861067,-0.774463 1.997035,-1.15037 4.144698,-1.371538 l 0.417812,-0.04303 -0.245938,-0.4178099 c -0.305323,-0.518693 -0.366412,-0.855053 -0.237341,-1.306826 l 0.09959,-0.348591 -0.381179,0.03623 c -0.999153,0.09496 -2.043252,-0.279885 -2.778381,-0.997469 -0.563896,-0.550438 -0.780074,-1.00958 -0.832812,-1.768809 l -0.03629,-0.522434 -1.900244,-0.01799 -1.90024503,-0.01799 2.88163503,-2.310824 2.881635,-2.31082398 4.8234889,-0.0029 c 2.652919,-0.0016 4.823489,0.0087 4.823489,0.02278 0,0.01411 -0.181569,0.151894 -0.403486,0.306179 l -0.403486,0.280518 0,0.57201598 c 0,0.484865 0.0227,0.592921 0.149005,0.709225 0.145769,0.134229 0.148557,0.199626 0.128382,3.012144 l -0.02062,2.874936 -0.173189,0.129091 c -0.228292,0.170161 -0.62907,0.167211 -0.817188,-0.006 -0.142212,-0.130954 -0.146722,-0.225178 -0.146722,-3.065443 0,-2.886269 0.0023,-2.931729 0.151513,-3.023017 0.124405,-0.0761 0.147374,-0.150126 0.128382,-0.413761 l -0.02313,-0.321079 -1.173776,0.885074 c -0.645578,0.48679 -1.215925,0.921965 -1.26744,0.967055 -0.07567,0.06623 -0.06324,0.145307 0.06468,0.411597 0.343578,0.715225 0.306333,1.781081 -0.0881,2.521239 -0.169254,0.317607 -0.414861,0.59519 -0.956314,1.080815 -1.3735949,1.231968 -1.3474549,1.485158 0.279906,2.711159 1.20084,0.9046729 1.610458,1.5030259 1.68984,2.4684519 0.07618,0.926468 -0.273464,1.779992 -1.005187,2.453788 -1.143726,1.053185 -3.4078649,1.617042 -5.4270309,1.351538 z m 2.905671,-0.794676 c 0.709462,-0.123896 1.2137899,-0.346383 1.6033599,-0.707333 0.427532,-0.396122 0.550762,-0.695357 0.548385,-1.331629 -0.0029,-0.77748 -0.39869,-1.322358 -1.5235739,-2.097513 l -0.697485,-0.480634 -0.851073,0.04054 c -2.226624,0.106052 -3.484207,0.914307 -3.487538,2.241458 -0.0015,0.582923 0.108025,0.884863 0.476536,1.314157 0.666714,0.776685 2.541781,1.263629 3.931389,1.020958 z M 9.0157291,7.39676 C 9.5177471,7.25948 10.01299,6.762832 10.182139,6.227044 10.439134,5.412992 10.149199,3.970119 9.5611421,3.13663 8.9323041,2.245341 8.1871571,1.868077 7.3558551,2.020105 6.7759351,2.12616 6.4067441,2.386182 6.1253291,2.886766 5.8367521,3.400092 5.7614181,3.906279 5.8691751,4.60793 c 0.214793,1.398606 0.966054,2.463973 1.970069,2.793761 0.368788,0.121136 0.720874,0.11966 1.176485,-0.0049 z"
     id="path4173"
     inkscape:connector-curvature="0" />
</svg>
